<mxfile host="www.draw.io" modified="2020-02-10T00:05:37.999Z" agent="Mozilla/5.0 (Windows NT 10.0; Win64; x64; rv:72.0) Gecko/20100101 Firefox/72.0" etag="KfHLdJRvYb19kGHpJ_zp" version="12.6.6" type="github">
  <diagram id="8ukho09movLcisT_4IBn" name="Page-1">
    <mxGraphModel dx="1422" dy="923" grid="1" gridSize="10" guides="1" tooltips="1" connect="1" arrows="1" fold="1" page="1" pageScale="1" pageWidth="2550" pageHeight="1100" math="0" shadow="0">
      <root>
        <mxCell id="0"/>
        <mxCell id="1" parent="0"/>
        <mxCell id="_fTM95hlGBz86pGKNipH-49" style="edgeStyle=orthogonalEdgeStyle;rounded=0;orthogonalLoop=1;jettySize=auto;html=1;fontSize=25;dashed=1;endArrow=blockThin;endFill=0;endSize=20;" parent="1" source="_fTM95hlGBz86pGKNipH-1" target="_fTM95hlGBz86pGKNipH-36" edge="1">
          <mxGeometry relative="1" as="geometry">
            <Array as="points">
              <mxPoint x="420" y="210"/>
              <mxPoint x="660" y="210"/>
            </Array>
          </mxGeometry>
        </mxCell>
        <mxCell id="_fTM95hlGBz86pGKNipH-1" value="Character" style="swimlane;fontStyle=0;childLayout=stackLayout;horizontal=1;startSize=26;horizontalStack=0;resizeParent=1;resizeParentMax=0;resizeLast=0;collapsible=1;marginBottom=0;fillColor=#dae8fc;strokeColor=#6c8ebf;fontSize=16;" parent="1" vertex="1">
          <mxGeometry x="290" y="230" width="260" height="156" as="geometry"/>
        </mxCell>
        <mxCell id="_fTM95hlGBz86pGKNipH-17" value="id: String" style="text;align=left;verticalAlign=top;spacingLeft=4;spacingRight=4;overflow=hidden;rotatable=0;points=[[0,0.5],[1,0.5]];portConstraint=eastwest;" parent="_fTM95hlGBz86pGKNipH-1" vertex="1">
          <mxGeometry y="26" width="260" height="26" as="geometry"/>
        </mxCell>
        <mxCell id="_fTM95hlGBz86pGKNipH-19" value="value: String" style="text;align=left;verticalAlign=top;spacingLeft=4;spacingRight=4;overflow=hidden;rotatable=0;points=[[0,0.5],[1,0.5]];portConstraint=eastwest;" parent="_fTM95hlGBz86pGKNipH-1" vertex="1">
          <mxGeometry y="52" width="260" height="26" as="geometry"/>
        </mxCell>
        <mxCell id="_fTM95hlGBz86pGKNipH-20" value="kanaNotation: String?" style="text;align=left;verticalAlign=top;spacingLeft=4;spacingRight=4;overflow=hidden;rotatable=0;points=[[0,0.5],[1,0.5]];portConstraint=eastwest;" parent="_fTM95hlGBz86pGKNipH-1" vertex="1">
          <mxGeometry y="78" width="260" height="26" as="geometry"/>
        </mxCell>
        <mxCell id="_fTM95hlGBz86pGKNipH-18" value="romajiNotation: String" style="text;align=left;verticalAlign=top;spacingLeft=4;spacingRight=4;overflow=hidden;rotatable=0;points=[[0,0.5],[1,0.5]];portConstraint=eastwest;" parent="_fTM95hlGBz86pGKNipH-1" vertex="1">
          <mxGeometry y="104" width="260" height="26" as="geometry"/>
        </mxCell>
        <mxCell id="_fTM95hlGBz86pGKNipH-21" value="audio: String?" style="text;align=left;verticalAlign=top;spacingLeft=4;spacingRight=4;overflow=hidden;rotatable=0;points=[[0,0.5],[1,0.5]];portConstraint=eastwest;" parent="_fTM95hlGBz86pGKNipH-1" vertex="1">
          <mxGeometry y="130" width="260" height="26" as="geometry"/>
        </mxCell>
        <mxCell id="_fTM95hlGBz86pGKNipH-50" style="edgeStyle=orthogonalEdgeStyle;rounded=0;orthogonalLoop=1;jettySize=auto;html=1;fontSize=25;dashed=1;endArrow=blockThin;endFill=0;endSize=20;exitX=0.5;exitY=0;exitDx=0;exitDy=0;" parent="1" source="_fTM95hlGBz86pGKNipH-5" target="_fTM95hlGBz86pGKNipH-36" edge="1">
          <mxGeometry relative="1" as="geometry">
            <Array as="points">
              <mxPoint x="690" y="230"/>
              <mxPoint x="690" y="230"/>
            </Array>
          </mxGeometry>
        </mxCell>
        <mxCell id="_fTM95hlGBz86pGKNipH-5" value="Word" style="swimlane;fontStyle=0;childLayout=stackLayout;horizontal=1;startSize=26;horizontalStack=0;resizeParent=1;resizeParentMax=0;resizeLast=0;collapsible=1;marginBottom=0;fillColor=#dae8fc;strokeColor=#6c8ebf;fontSize=16;" parent="1" vertex="1">
          <mxGeometry x="560" y="230" width="260" height="208" as="geometry"/>
        </mxCell>
        <mxCell id="_fTM95hlGBz86pGKNipH-6" value="id: String" style="text;align=left;verticalAlign=top;spacingLeft=4;spacingRight=4;overflow=hidden;rotatable=0;points=[[0,0.5],[1,0.5]];portConstraint=eastwest;" parent="_fTM95hlGBz86pGKNipH-5" vertex="1">
          <mxGeometry y="26" width="260" height="26" as="geometry"/>
        </mxCell>
        <mxCell id="VTPUq92XnDuq-sjGf8QF-19" value="value: String" style="text;align=left;verticalAlign=top;spacingLeft=4;spacingRight=4;overflow=hidden;rotatable=0;points=[[0,0.5],[1,0.5]];portConstraint=eastwest;" parent="_fTM95hlGBz86pGKNipH-5" vertex="1">
          <mxGeometry y="52" width="260" height="26" as="geometry"/>
        </mxCell>
        <mxCell id="_fTM95hlGBz86pGKNipH-7" value="kanaNotation: String?" style="text;align=left;verticalAlign=top;spacingLeft=4;spacingRight=4;overflow=hidden;rotatable=0;points=[[0,0.5],[1,0.5]];portConstraint=eastwest;" parent="_fTM95hlGBz86pGKNipH-5" vertex="1">
          <mxGeometry y="78" width="260" height="26" as="geometry"/>
        </mxCell>
        <mxCell id="_fTM95hlGBz86pGKNipH-14" value="romajiNotation: String" style="text;align=left;verticalAlign=top;spacingLeft=4;spacingRight=4;overflow=hidden;rotatable=0;points=[[0,0.5],[1,0.5]];portConstraint=eastwest;" parent="_fTM95hlGBz86pGKNipH-5" vertex="1">
          <mxGeometry y="104" width="260" height="26" as="geometry"/>
        </mxCell>
        <mxCell id="_fTM95hlGBz86pGKNipH-13" value="audio: String?" style="text;align=left;verticalAlign=top;spacingLeft=4;spacingRight=4;overflow=hidden;rotatable=0;points=[[0,0.5],[1,0.5]];portConstraint=eastwest;" parent="_fTM95hlGBz86pGKNipH-5" vertex="1">
          <mxGeometry y="130" width="260" height="26" as="geometry"/>
        </mxCell>
        <mxCell id="_fTM95hlGBz86pGKNipH-22" value="meaning: [String]&#xa;" style="text;align=left;verticalAlign=top;spacingLeft=4;spacingRight=4;overflow=hidden;rotatable=0;points=[[0,0.5],[1,0.5]];portConstraint=eastwest;" parent="_fTM95hlGBz86pGKNipH-5" vertex="1">
          <mxGeometry y="156" width="260" height="26" as="geometry"/>
        </mxCell>
        <mxCell id="VTPUq92XnDuq-sjGf8QF-28" value="type: WordType" style="text;align=left;verticalAlign=top;spacingLeft=4;spacingRight=4;overflow=hidden;rotatable=0;points=[[0,0.5],[1,0.5]];portConstraint=eastwest;" parent="_fTM95hlGBz86pGKNipH-5" vertex="1">
          <mxGeometry y="182" width="260" height="26" as="geometry"/>
        </mxCell>
        <mxCell id="_fTM95hlGBz86pGKNipH-32" value="WordType" style="swimlane;fontStyle=0;childLayout=stackLayout;horizontal=1;startSize=26;horizontalStack=0;resizeParent=1;resizeParentMax=0;resizeLast=0;collapsible=1;marginBottom=0;fillColor=#d5e8d4;strokeColor=#82b366;fontSize=16;" parent="1" vertex="1">
          <mxGeometry x="560" y="450" width="260" height="130" as="geometry"/>
        </mxCell>
        <mxCell id="_fTM95hlGBz86pGKNipH-33" value="noun" style="text;align=left;verticalAlign=top;spacingLeft=4;spacingRight=4;overflow=hidden;rotatable=0;points=[[0,0.5],[1,0.5]];portConstraint=eastwest;" parent="_fTM95hlGBz86pGKNipH-32" vertex="1">
          <mxGeometry y="26" width="260" height="26" as="geometry"/>
        </mxCell>
        <mxCell id="_fTM95hlGBz86pGKNipH-34" value="particle" style="text;align=left;verticalAlign=top;spacingLeft=4;spacingRight=4;overflow=hidden;rotatable=0;points=[[0,0.5],[1,0.5]];portConstraint=eastwest;" parent="_fTM95hlGBz86pGKNipH-32" vertex="1">
          <mxGeometry y="52" width="260" height="26" as="geometry"/>
        </mxCell>
        <mxCell id="_fTM95hlGBz86pGKNipH-35" value="verb" style="text;align=left;verticalAlign=top;spacingLeft=4;spacingRight=4;overflow=hidden;rotatable=0;points=[[0,0.5],[1,0.5]];portConstraint=eastwest;" parent="_fTM95hlGBz86pGKNipH-32" vertex="1">
          <mxGeometry y="78" width="260" height="26" as="geometry"/>
        </mxCell>
        <mxCell id="nCAEwLILc9wwQ5Cq-2kZ-1" value="numeric" style="text;align=left;verticalAlign=top;spacingLeft=4;spacingRight=4;overflow=hidden;rotatable=0;points=[[0,0.5],[1,0.5]];portConstraint=eastwest;" vertex="1" parent="_fTM95hlGBz86pGKNipH-32">
          <mxGeometry y="104" width="260" height="26" as="geometry"/>
        </mxCell>
        <mxCell id="_fTM95hlGBz86pGKNipH-36" value="&lt;&lt;Writable&gt;&gt;" style="swimlane;fontStyle=0;childLayout=stackLayout;horizontal=1;startSize=26;fillColor=#f8cecc;horizontalStack=0;resizeParent=1;resizeParentMax=0;resizeLast=0;collapsible=1;marginBottom=0;strokeColor=#b85450;fontSize=16;" parent="1" vertex="1">
          <mxGeometry x="560" y="20" width="260" height="156" as="geometry"/>
        </mxCell>
        <mxCell id="_fTM95hlGBz86pGKNipH-37" value="id: String" style="text;strokeColor=none;fillColor=none;align=left;verticalAlign=top;spacingLeft=4;spacingRight=4;overflow=hidden;rotatable=0;points=[[0,0.5],[1,0.5]];portConstraint=eastwest;" parent="_fTM95hlGBz86pGKNipH-36" vertex="1">
          <mxGeometry y="26" width="260" height="26" as="geometry"/>
        </mxCell>
        <mxCell id="_fTM95hlGBz86pGKNipH-38" value="value: String" style="text;strokeColor=none;fillColor=none;align=left;verticalAlign=top;spacingLeft=4;spacingRight=4;overflow=hidden;rotatable=0;points=[[0,0.5],[1,0.5]];portConstraint=eastwest;" parent="_fTM95hlGBz86pGKNipH-36" vertex="1">
          <mxGeometry y="52" width="260" height="26" as="geometry"/>
        </mxCell>
        <mxCell id="_fTM95hlGBz86pGKNipH-39" value="kanaNotation: String?" style="text;strokeColor=none;fillColor=none;align=left;verticalAlign=top;spacingLeft=4;spacingRight=4;overflow=hidden;rotatable=0;points=[[0,0.5],[1,0.5]];portConstraint=eastwest;" parent="_fTM95hlGBz86pGKNipH-36" vertex="1">
          <mxGeometry y="78" width="260" height="26" as="geometry"/>
        </mxCell>
        <mxCell id="_fTM95hlGBz86pGKNipH-40" value="romajiNotation: String" style="text;strokeColor=none;fillColor=none;align=left;verticalAlign=top;spacingLeft=4;spacingRight=4;overflow=hidden;rotatable=0;points=[[0,0.5],[1,0.5]];portConstraint=eastwest;" parent="_fTM95hlGBz86pGKNipH-36" vertex="1">
          <mxGeometry y="104" width="260" height="26" as="geometry"/>
        </mxCell>
        <mxCell id="_fTM95hlGBz86pGKNipH-41" value="audio: String" style="text;strokeColor=none;fillColor=none;align=left;verticalAlign=top;spacingLeft=4;spacingRight=4;overflow=hidden;rotatable=0;points=[[0,0.5],[1,0.5]];portConstraint=eastwest;" parent="_fTM95hlGBz86pGKNipH-36" vertex="1">
          <mxGeometry y="130" width="260" height="26" as="geometry"/>
        </mxCell>
        <mxCell id="_fTM95hlGBz86pGKNipH-42" value="Yume App Model" style="rounded=0;whiteSpace=wrap;html=1;align=left;spacingLeft=40;fontSize=25;" parent="1" vertex="1">
          <mxGeometry x="20" y="20" width="350" height="60" as="geometry"/>
        </mxCell>
        <mxCell id="_fTM95hlGBz86pGKNipH-60" value="CharacterTable.TableType" style="swimlane;fontStyle=0;childLayout=stackLayout;horizontal=1;startSize=26;horizontalStack=0;resizeParent=1;resizeParentMax=0;resizeLast=0;collapsible=1;marginBottom=0;fillColor=#d5e8d4;strokeColor=#82b366;fontSize=16;" parent="1" vertex="1">
          <mxGeometry x="20" y="346" width="260" height="78" as="geometry"/>
        </mxCell>
        <mxCell id="_fTM95hlGBz86pGKNipH-61" value="hiragana" style="text;align=left;verticalAlign=top;spacingLeft=4;spacingRight=4;overflow=hidden;rotatable=0;points=[[0,0.5],[1,0.5]];portConstraint=eastwest;" parent="_fTM95hlGBz86pGKNipH-60" vertex="1">
          <mxGeometry y="26" width="260" height="26" as="geometry"/>
        </mxCell>
        <mxCell id="_fTM95hlGBz86pGKNipH-62" value="katakana" style="text;align=left;verticalAlign=top;spacingLeft=4;spacingRight=4;overflow=hidden;rotatable=0;points=[[0,0.5],[1,0.5]];portConstraint=eastwest;" parent="_fTM95hlGBz86pGKNipH-60" vertex="1">
          <mxGeometry y="52" width="260" height="26" as="geometry"/>
        </mxCell>
        <mxCell id="_fTM95hlGBz86pGKNipH-64" value="Question" style="swimlane;fontStyle=0;childLayout=stackLayout;horizontal=1;startSize=26;horizontalStack=0;resizeParent=1;resizeParentMax=0;resizeLast=0;collapsible=1;marginBottom=0;fillColor=#dae8fc;strokeColor=#6c8ebf;fontSize=16;" parent="1" vertex="1">
          <mxGeometry x="560" y="610" width="260" height="182" as="geometry"/>
        </mxCell>
        <mxCell id="_fTM95hlGBz86pGKNipH-65" value="id: String" style="text;align=left;verticalAlign=top;spacingLeft=4;spacingRight=4;overflow=hidden;rotatable=0;points=[[0,0.5],[1,0.5]];portConstraint=eastwest;" parent="_fTM95hlGBz86pGKNipH-64" vertex="1">
          <mxGeometry y="26" width="260" height="26" as="geometry"/>
        </mxCell>
        <mxCell id="_fTM95hlGBz86pGKNipH-66" value="prompt: String" style="text;align=left;verticalAlign=top;spacingLeft=4;spacingRight=4;overflow=hidden;rotatable=0;points=[[0,0.5],[1,0.5]];portConstraint=eastwest;" parent="_fTM95hlGBz86pGKNipH-64" vertex="1">
          <mxGeometry y="52" width="260" height="26" as="geometry"/>
        </mxCell>
        <mxCell id="_fTM95hlGBz86pGKNipH-68" value="questionType: QuestionType" style="text;align=left;verticalAlign=top;spacingLeft=4;spacingRight=4;overflow=hidden;rotatable=0;points=[[0,0.5],[1,0.5]];portConstraint=eastwest;" parent="_fTM95hlGBz86pGKNipH-64" vertex="1">
          <mxGeometry y="78" width="260" height="26" as="geometry"/>
        </mxCell>
        <mxCell id="_fTM95hlGBz86pGKNipH-75" value="subject: Writable" style="text;align=left;verticalAlign=top;spacingLeft=4;spacingRight=4;overflow=hidden;rotatable=0;points=[[0,0.5],[1,0.5]];portConstraint=eastwest;" parent="_fTM95hlGBz86pGKNipH-64" vertex="1">
          <mxGeometry y="104" width="260" height="26" as="geometry"/>
        </mxCell>
        <mxCell id="_fTM95hlGBz86pGKNipH-82" value="subjectType: SubjectType" style="text;align=left;verticalAlign=top;spacingLeft=4;spacingRight=4;overflow=hidden;rotatable=0;points=[[0,0.5],[1,0.5]];portConstraint=eastwest;" parent="_fTM95hlGBz86pGKNipH-64" vertex="1">
          <mxGeometry y="130" width="260" height="26" as="geometry"/>
        </mxCell>
        <mxCell id="_fTM95hlGBz86pGKNipH-83" value="answer: String" style="text;align=left;verticalAlign=top;spacingLeft=4;spacingRight=4;overflow=hidden;rotatable=0;points=[[0,0.5],[1,0.5]];portConstraint=eastwest;" parent="_fTM95hlGBz86pGKNipH-64" vertex="1">
          <mxGeometry y="156" width="260" height="26" as="geometry"/>
        </mxCell>
        <mxCell id="_fTM95hlGBz86pGKNipH-71" value="SubjectType" style="swimlane;fontStyle=0;childLayout=stackLayout;horizontal=1;startSize=26;horizontalStack=0;resizeParent=1;resizeParentMax=0;resizeLast=0;collapsible=1;marginBottom=0;fillColor=#d5e8d4;strokeColor=#82b366;fontSize=16;" parent="1" vertex="1">
          <mxGeometry x="1100" y="610" width="260" height="104" as="geometry"/>
        </mxCell>
        <mxCell id="_fTM95hlGBz86pGKNipH-72" value="character" style="text;align=left;verticalAlign=top;spacingLeft=4;spacingRight=4;overflow=hidden;rotatable=0;points=[[0,0.5],[1,0.5]];portConstraint=eastwest;" parent="_fTM95hlGBz86pGKNipH-71" vertex="1">
          <mxGeometry y="26" width="260" height="26" as="geometry"/>
        </mxCell>
        <mxCell id="_fTM95hlGBz86pGKNipH-73" value="word" style="text;align=left;verticalAlign=top;spacingLeft=4;spacingRight=4;overflow=hidden;rotatable=0;points=[[0,0.5],[1,0.5]];portConstraint=eastwest;" parent="_fTM95hlGBz86pGKNipH-71" vertex="1">
          <mxGeometry y="52" width="260" height="26" as="geometry"/>
        </mxCell>
        <mxCell id="_fTM95hlGBz86pGKNipH-79" value="sentence" style="text;align=left;verticalAlign=top;spacingLeft=4;spacingRight=4;overflow=hidden;rotatable=0;points=[[0,0.5],[1,0.5]];portConstraint=eastwest;" parent="_fTM95hlGBz86pGKNipH-71" vertex="1">
          <mxGeometry y="78" width="260" height="26" as="geometry"/>
        </mxCell>
        <mxCell id="_fTM95hlGBz86pGKNipH-76" value="QuestionType" style="swimlane;fontStyle=0;childLayout=stackLayout;horizontal=1;startSize=26;horizontalStack=0;resizeParent=1;resizeParentMax=0;resizeLast=0;collapsible=1;marginBottom=0;fillColor=#d5e8d4;strokeColor=#82b366;fontSize=16;" parent="1" vertex="1">
          <mxGeometry x="830" y="610" width="260" height="104" as="geometry"/>
        </mxCell>
        <mxCell id="_fTM95hlGBz86pGKNipH-77" value="translateEnglishToJapanese" style="text;align=left;verticalAlign=top;spacingLeft=4;spacingRight=4;overflow=hidden;rotatable=0;points=[[0,0.5],[1,0.5]];portConstraint=eastwest;" parent="_fTM95hlGBz86pGKNipH-76" vertex="1">
          <mxGeometry y="26" width="260" height="26" as="geometry"/>
        </mxCell>
        <mxCell id="_fTM95hlGBz86pGKNipH-78" value="translateJapaneseToEnglish" style="text;align=left;verticalAlign=top;spacingLeft=4;spacingRight=4;overflow=hidden;rotatable=0;points=[[0,0.5],[1,0.5]];portConstraint=eastwest;" parent="_fTM95hlGBz86pGKNipH-76" vertex="1">
          <mxGeometry y="52" width="260" height="26" as="geometry"/>
        </mxCell>
        <mxCell id="nCAEwLILc9wwQ5Cq-2kZ-2" value="translateJapaneseToEnglish" style="text;align=left;verticalAlign=top;spacingLeft=4;spacingRight=4;overflow=hidden;rotatable=0;points=[[0,0.5],[1,0.5]];portConstraint=eastwest;" vertex="1" parent="_fTM95hlGBz86pGKNipH-76">
          <mxGeometry y="78" width="260" height="26" as="geometry"/>
        </mxCell>
        <mxCell id="_fTM95hlGBz86pGKNipH-84" value="PracticeGroup" style="swimlane;fontStyle=0;childLayout=stackLayout;horizontal=1;startSize=26;horizontalStack=0;resizeParent=1;resizeParentMax=0;resizeLast=0;collapsible=1;marginBottom=0;fillColor=#dae8fc;strokeColor=#6c8ebf;fontSize=16;" parent="1" vertex="1">
          <mxGeometry x="20" y="610" width="260" height="130" as="geometry"/>
        </mxCell>
        <mxCell id="_fTM95hlGBz86pGKNipH-85" value="id: String" style="text;align=left;verticalAlign=top;spacingLeft=4;spacingRight=4;overflow=hidden;rotatable=0;points=[[0,0.5],[1,0.5]];portConstraint=eastwest;" parent="_fTM95hlGBz86pGKNipH-84" vertex="1">
          <mxGeometry y="26" width="260" height="26" as="geometry"/>
        </mxCell>
        <mxCell id="_fTM95hlGBz86pGKNipH-86" value="title: String" style="text;align=left;verticalAlign=top;spacingLeft=4;spacingRight=4;overflow=hidden;rotatable=0;points=[[0,0.5],[1,0.5]];portConstraint=eastwest;" parent="_fTM95hlGBz86pGKNipH-84" vertex="1">
          <mxGeometry y="52" width="260" height="26" as="geometry"/>
        </mxCell>
        <mxCell id="VTPUq92XnDuq-sjGf8QF-44" value="requirements: [String]" style="text;align=left;verticalAlign=top;spacingLeft=4;spacingRight=4;overflow=hidden;rotatable=0;points=[[0,0.5],[1,0.5]];portConstraint=eastwest;" parent="_fTM95hlGBz86pGKNipH-84" vertex="1">
          <mxGeometry y="78" width="260" height="26" as="geometry"/>
        </mxCell>
        <mxCell id="VTPUq92XnDuq-sjGf8QF-45" value="levels: [QuestionLevel]" style="text;align=left;verticalAlign=top;spacingLeft=4;spacingRight=4;overflow=hidden;rotatable=0;points=[[0,0.5],[1,0.5]];portConstraint=eastwest;" parent="_fTM95hlGBz86pGKNipH-84" vertex="1">
          <mxGeometry y="104" width="260" height="26" as="geometry"/>
        </mxCell>
        <mxCell id="_fTM95hlGBz86pGKNipH-91" value="AnswerLog" style="swimlane;fontStyle=0;childLayout=stackLayout;horizontal=1;startSize=26;horizontalStack=0;resizeParent=1;resizeParentMax=0;resizeLast=0;collapsible=1;marginBottom=0;fillColor=#dae8fc;strokeColor=#6c8ebf;fontSize=16;" parent="1" vertex="1">
          <mxGeometry x="260" y="1110" width="260" height="208" as="geometry"/>
        </mxCell>
        <mxCell id="_fTM95hlGBz86pGKNipH-92" value="id: String" style="text;align=left;verticalAlign=top;spacingLeft=4;spacingRight=4;overflow=hidden;rotatable=0;points=[[0,0.5],[1,0.5]];portConstraint=eastwest;" parent="_fTM95hlGBz86pGKNipH-91" vertex="1">
          <mxGeometry y="26" width="260" height="26" as="geometry"/>
        </mxCell>
        <mxCell id="_fTM95hlGBz86pGKNipH-93" value="questionId:String" style="text;align=left;verticalAlign=top;spacingLeft=4;spacingRight=4;overflow=hidden;rotatable=0;points=[[0,0.5],[1,0.5]];portConstraint=eastwest;" parent="_fTM95hlGBz86pGKNipH-91" vertex="1">
          <mxGeometry y="52" width="260" height="26" as="geometry"/>
        </mxCell>
        <mxCell id="_fTM95hlGBz86pGKNipH-94" value="questionGroupId:String" style="text;align=left;verticalAlign=top;spacingLeft=4;spacingRight=4;overflow=hidden;rotatable=0;points=[[0,0.5],[1,0.5]];portConstraint=eastwest;" parent="_fTM95hlGBz86pGKNipH-91" vertex="1">
          <mxGeometry y="78" width="260" height="26" as="geometry"/>
        </mxCell>
        <mxCell id="_fTM95hlGBz86pGKNipH-95" value="selectedAnswer: String" style="text;align=left;verticalAlign=top;spacingLeft=4;spacingRight=4;overflow=hidden;rotatable=0;points=[[0,0.5],[1,0.5]];portConstraint=eastwest;" parent="_fTM95hlGBz86pGKNipH-91" vertex="1">
          <mxGeometry y="104" width="260" height="26" as="geometry"/>
        </mxCell>
        <mxCell id="_fTM95hlGBz86pGKNipH-96" value="isCorrect: Bool" style="text;align=left;verticalAlign=top;spacingLeft=4;spacingRight=4;overflow=hidden;rotatable=0;points=[[0,0.5],[1,0.5]];portConstraint=eastwest;" parent="_fTM95hlGBz86pGKNipH-91" vertex="1">
          <mxGeometry y="130" width="260" height="26" as="geometry"/>
        </mxCell>
        <mxCell id="_fTM95hlGBz86pGKNipH-97" value="completed: Date" style="text;align=left;verticalAlign=top;spacingLeft=4;spacingRight=4;overflow=hidden;rotatable=0;points=[[0,0.5],[1,0.5]];portConstraint=eastwest;" parent="_fTM95hlGBz86pGKNipH-91" vertex="1">
          <mxGeometry y="156" width="260" height="26" as="geometry"/>
        </mxCell>
        <mxCell id="_fTM95hlGBz86pGKNipH-98" value="earnedExperience: Int" style="text;align=left;verticalAlign=top;spacingLeft=4;spacingRight=4;overflow=hidden;rotatable=0;points=[[0,0.5],[1,0.5]];portConstraint=eastwest;" parent="_fTM95hlGBz86pGKNipH-91" vertex="1">
          <mxGeometry y="182" width="260" height="26" as="geometry"/>
        </mxCell>
        <mxCell id="_fTM95hlGBz86pGKNipH-108" value="Student" style="swimlane;fontStyle=0;childLayout=stackLayout;horizontal=1;startSize=26;horizontalStack=0;resizeParent=1;resizeParentMax=0;resizeLast=0;collapsible=1;marginBottom=0;fillColor=#dae8fc;strokeColor=#6c8ebf;fontSize=16;" parent="1" vertex="1">
          <mxGeometry x="260" y="1360" width="260" height="130" as="geometry"/>
        </mxCell>
        <mxCell id="_fTM95hlGBz86pGKNipH-109" value="id: String" style="text;align=left;verticalAlign=top;spacingLeft=4;spacingRight=4;overflow=hidden;rotatable=0;points=[[0,0.5],[1,0.5]];portConstraint=eastwest;" parent="_fTM95hlGBz86pGKNipH-108" vertex="1">
          <mxGeometry y="26" width="260" height="26" as="geometry"/>
        </mxCell>
        <mxCell id="_fTM95hlGBz86pGKNipH-110" value="name: String" style="text;align=left;verticalAlign=top;spacingLeft=4;spacingRight=4;overflow=hidden;rotatable=0;points=[[0,0.5],[1,0.5]];portConstraint=eastwest;" parent="_fTM95hlGBz86pGKNipH-108" vertex="1">
          <mxGeometry y="52" width="260" height="26" as="geometry"/>
        </mxCell>
        <mxCell id="VTPUq92XnDuq-sjGf8QF-10" value="experience: Experience" style="text;align=left;verticalAlign=top;spacingLeft=4;spacingRight=4;overflow=hidden;rotatable=0;points=[[0,0.5],[1,0.5]];portConstraint=eastwest;" parent="_fTM95hlGBz86pGKNipH-108" vertex="1">
          <mxGeometry y="78" width="260" height="26" as="geometry"/>
        </mxCell>
        <mxCell id="VTPUq92XnDuq-sjGf8QF-11" value="progress: [String: Experience]" style="text;align=left;verticalAlign=top;spacingLeft=4;spacingRight=4;overflow=hidden;rotatable=0;points=[[0,0.5],[1,0.5]];portConstraint=eastwest;" parent="_fTM95hlGBz86pGKNipH-108" vertex="1">
          <mxGeometry y="104" width="260" height="26" as="geometry"/>
        </mxCell>
        <mxCell id="VTPUq92XnDuq-sjGf8QF-3" value="Experience" style="swimlane;fontStyle=0;childLayout=stackLayout;horizontal=1;startSize=26;horizontalStack=0;resizeParent=1;resizeParentMax=0;resizeLast=0;collapsible=1;marginBottom=0;fillColor=#dae8fc;strokeColor=#6c8ebf;fontSize=16;" parent="1" vertex="1">
          <mxGeometry x="530" y="1360" width="260" height="130" as="geometry"/>
        </mxCell>
        <mxCell id="VTPUq92XnDuq-sjGf8QF-6" value="totalExperiencce: Int" style="text;align=left;verticalAlign=top;spacingLeft=4;spacingRight=4;overflow=hidden;rotatable=0;points=[[0,0.5],[1,0.5]];portConstraint=eastwest;" parent="VTPUq92XnDuq-sjGf8QF-3" vertex="1">
          <mxGeometry y="26" width="260" height="26" as="geometry"/>
        </mxCell>
        <mxCell id="VTPUq92XnDuq-sjGf8QF-7" value="currentLevelExperience: Int" style="text;align=left;verticalAlign=top;spacingLeft=4;spacingRight=4;overflow=hidden;rotatable=0;points=[[0,0.5],[1,0.5]];portConstraint=eastwest;" parent="VTPUq92XnDuq-sjGf8QF-3" vertex="1">
          <mxGeometry y="52" width="260" height="26" as="geometry"/>
        </mxCell>
        <mxCell id="VTPUq92XnDuq-sjGf8QF-8" value="nextLevelExperience: Int" style="text;align=left;verticalAlign=top;spacingLeft=4;spacingRight=4;overflow=hidden;rotatable=0;points=[[0,0.5],[1,0.5]];portConstraint=eastwest;" parent="VTPUq92XnDuq-sjGf8QF-3" vertex="1">
          <mxGeometry y="78" width="260" height="26" as="geometry"/>
        </mxCell>
        <mxCell id="VTPUq92XnDuq-sjGf8QF-9" value="level: Int" style="text;align=left;verticalAlign=top;spacingLeft=4;spacingRight=4;overflow=hidden;rotatable=0;points=[[0,0.5],[1,0.5]];portConstraint=eastwest;" parent="VTPUq92XnDuq-sjGf8QF-3" vertex="1">
          <mxGeometry y="104" width="260" height="26" as="geometry"/>
        </mxCell>
        <mxCell id="VTPUq92XnDuq-sjGf8QF-25" style="edgeStyle=orthogonalEdgeStyle;rounded=0;orthogonalLoop=1;jettySize=auto;html=1;dashed=1;strokeWidth=1;endSize=20;endArrow=blockThin;endFill=0;jumpStyle=arc;" parent="1" source="VTPUq92XnDuq-sjGf8QF-12" target="_fTM95hlGBz86pGKNipH-36" edge="1">
          <mxGeometry relative="1" as="geometry">
            <Array as="points">
              <mxPoint x="960" y="210"/>
              <mxPoint x="720" y="210"/>
            </Array>
          </mxGeometry>
        </mxCell>
        <mxCell id="VTPUq92XnDuq-sjGf8QF-12" value="Sentence" style="swimlane;fontStyle=0;childLayout=stackLayout;horizontal=1;startSize=26;horizontalStack=0;resizeParent=1;resizeParentMax=0;resizeLast=0;collapsible=1;marginBottom=0;fillColor=#dae8fc;strokeColor=#6c8ebf;fontSize=16;" parent="1" vertex="1">
          <mxGeometry x="830" y="230" width="260" height="182" as="geometry"/>
        </mxCell>
        <mxCell id="VTPUq92XnDuq-sjGf8QF-13" value="id: String" style="text;align=left;verticalAlign=top;spacingLeft=4;spacingRight=4;overflow=hidden;rotatable=0;points=[[0,0.5],[1,0.5]];portConstraint=eastwest;" parent="VTPUq92XnDuq-sjGf8QF-12" vertex="1">
          <mxGeometry y="26" width="260" height="26" as="geometry"/>
        </mxCell>
        <mxCell id="VTPUq92XnDuq-sjGf8QF-14" value="value: String" style="text;align=left;verticalAlign=top;spacingLeft=4;spacingRight=4;overflow=hidden;rotatable=0;points=[[0,0.5],[1,0.5]];portConstraint=eastwest;" parent="VTPUq92XnDuq-sjGf8QF-12" vertex="1">
          <mxGeometry y="52" width="260" height="26" as="geometry"/>
        </mxCell>
        <mxCell id="VTPUq92XnDuq-sjGf8QF-15" value="kanaNotation: String?" style="text;align=left;verticalAlign=top;spacingLeft=4;spacingRight=4;overflow=hidden;rotatable=0;points=[[0,0.5],[1,0.5]];portConstraint=eastwest;" parent="VTPUq92XnDuq-sjGf8QF-12" vertex="1">
          <mxGeometry y="78" width="260" height="26" as="geometry"/>
        </mxCell>
        <mxCell id="VTPUq92XnDuq-sjGf8QF-16" value="romajiNotation: String" style="text;align=left;verticalAlign=top;spacingLeft=4;spacingRight=4;overflow=hidden;rotatable=0;points=[[0,0.5],[1,0.5]];portConstraint=eastwest;" parent="VTPUq92XnDuq-sjGf8QF-12" vertex="1">
          <mxGeometry y="104" width="260" height="26" as="geometry"/>
        </mxCell>
        <mxCell id="VTPUq92XnDuq-sjGf8QF-17" value="audio: String?" style="text;align=left;verticalAlign=top;spacingLeft=4;spacingRight=4;overflow=hidden;rotatable=0;points=[[0,0.5],[1,0.5]];portConstraint=eastwest;" parent="VTPUq92XnDuq-sjGf8QF-12" vertex="1">
          <mxGeometry y="130" width="260" height="26" as="geometry"/>
        </mxCell>
        <mxCell id="VTPUq92XnDuq-sjGf8QF-18" value="meaning: [String]&#xa;" style="text;align=left;verticalAlign=top;spacingLeft=4;spacingRight=4;overflow=hidden;rotatable=0;points=[[0,0.5],[1,0.5]];portConstraint=eastwest;" parent="VTPUq92XnDuq-sjGf8QF-12" vertex="1">
          <mxGeometry y="156" width="260" height="26" as="geometry"/>
        </mxCell>
        <mxCell id="VTPUq92XnDuq-sjGf8QF-29" value="CharacterTable" style="swimlane;fontStyle=0;childLayout=stackLayout;horizontal=1;startSize=26;horizontalStack=0;resizeParent=1;resizeParentMax=0;resizeLast=0;collapsible=1;marginBottom=0;fillColor=#dae8fc;strokeColor=#6c8ebf;fontSize=16;" parent="1" vertex="1">
          <mxGeometry x="20" y="230" width="260" height="104" as="geometry"/>
        </mxCell>
        <mxCell id="VTPUq92XnDuq-sjGf8QF-30" value="title: String" style="text;align=left;verticalAlign=top;spacingLeft=4;spacingRight=4;overflow=hidden;rotatable=0;points=[[0,0.5],[1,0.5]];portConstraint=eastwest;" parent="VTPUq92XnDuq-sjGf8QF-29" vertex="1">
          <mxGeometry y="26" width="260" height="26" as="geometry"/>
        </mxCell>
        <mxCell id="VTPUq92XnDuq-sjGf8QF-31" value="type: TableType" style="text;align=left;verticalAlign=top;spacingLeft=4;spacingRight=4;overflow=hidden;rotatable=0;points=[[0,0.5],[1,0.5]];portConstraint=eastwest;" parent="VTPUq92XnDuq-sjGf8QF-29" vertex="1">
          <mxGeometry y="52" width="260" height="26" as="geometry"/>
        </mxCell>
        <mxCell id="VTPUq92XnDuq-sjGf8QF-32" value="characters: [Character]" style="text;align=left;verticalAlign=top;spacingLeft=4;spacingRight=4;overflow=hidden;rotatable=0;points=[[0,0.5],[1,0.5]];portConstraint=eastwest;" parent="VTPUq92XnDuq-sjGf8QF-29" vertex="1">
          <mxGeometry y="78" width="260" height="26" as="geometry"/>
        </mxCell>
        <mxCell id="VTPUq92XnDuq-sjGf8QF-36" value="PracticeLevel" style="swimlane;fontStyle=0;childLayout=stackLayout;horizontal=1;startSize=26;horizontalStack=0;resizeParent=1;resizeParentMax=0;resizeLast=0;collapsible=1;marginBottom=0;fillColor=#dae8fc;strokeColor=#6c8ebf;fontSize=16;" parent="1" vertex="1">
          <mxGeometry x="290" y="610" width="260" height="182" as="geometry"/>
        </mxCell>
        <mxCell id="VTPUq92XnDuq-sjGf8QF-42" value="id: String" style="text;align=left;verticalAlign=top;spacingLeft=4;spacingRight=4;overflow=hidden;rotatable=0;points=[[0,0.5],[1,0.5]];portConstraint=eastwest;" parent="VTPUq92XnDuq-sjGf8QF-36" vertex="1">
          <mxGeometry y="26" width="260" height="26" as="geometry"/>
        </mxCell>
        <mxCell id="VTPUq92XnDuq-sjGf8QF-38" value="level: Int" style="text;align=left;verticalAlign=top;spacingLeft=4;spacingRight=4;overflow=hidden;rotatable=0;points=[[0,0.5],[1,0.5]];portConstraint=eastwest;" parent="VTPUq92XnDuq-sjGf8QF-36" vertex="1">
          <mxGeometry y="52" width="260" height="26" as="geometry"/>
        </mxCell>
        <mxCell id="VTPUq92XnDuq-sjGf8QF-39" value="characters: [String]" style="text;align=left;verticalAlign=top;spacingLeft=4;spacingRight=4;overflow=hidden;rotatable=0;points=[[0,0.5],[1,0.5]];portConstraint=eastwest;" parent="VTPUq92XnDuq-sjGf8QF-36" vertex="1">
          <mxGeometry y="78" width="260" height="26" as="geometry"/>
        </mxCell>
        <mxCell id="VTPUq92XnDuq-sjGf8QF-40" value="vocabulary: [String]&#xa;&#xa;&#xa;" style="text;align=left;verticalAlign=top;spacingLeft=4;spacingRight=4;overflow=hidden;rotatable=0;points=[[0,0.5],[1,0.5]];portConstraint=eastwest;" parent="VTPUq92XnDuq-sjGf8QF-36" vertex="1">
          <mxGeometry y="104" width="260" height="26" as="geometry"/>
        </mxCell>
        <mxCell id="VTPUq92XnDuq-sjGf8QF-46" value="phrases: [String]" style="text;align=left;verticalAlign=top;spacingLeft=4;spacingRight=4;overflow=hidden;rotatable=0;points=[[0,0.5],[1,0.5]];portConstraint=eastwest;" parent="VTPUq92XnDuq-sjGf8QF-36" vertex="1">
          <mxGeometry y="130" width="260" height="26" as="geometry"/>
        </mxCell>
        <mxCell id="VTPUq92XnDuq-sjGf8QF-41" value="questions: [Question]" style="text;align=left;verticalAlign=top;spacingLeft=4;spacingRight=4;overflow=hidden;rotatable=0;points=[[0,0.5],[1,0.5]];portConstraint=eastwest;" parent="VTPUq92XnDuq-sjGf8QF-36" vertex="1">
          <mxGeometry y="156" width="260" height="26" as="geometry"/>
        </mxCell>
        <mxCell id="sufnBieUI0Z995Ktvtn8-1" value="Yume App Architecture" style="rounded=0;whiteSpace=wrap;html=1;align=left;spacingLeft=40;fontSize=25;" parent="1" vertex="1">
          <mxGeometry x="1700" y="20" width="350" height="60" as="geometry"/>
        </mxCell>
      </root>
    </mxGraphModel>
  </diagram>
</mxfile>
